#
# @(#)rubik_sticker.obj  1.1  2012-07-16
#
# Copyright (c) 2011-2012 Werner Randelshofer, Immensee, Switzerland.
# All rights reserved.
#
# You may not use, copy or modify this file, except in compliance with the
# license agreement you entered into with Werner Randelshofer.
# For details see accompanying license terms.
#

mtllib ./rubik_sticker_f.obj.mtl

# 1:left down front
vn -0.123092 -0.123092 0.984732
v -0.808281 -0.800000 0.895 0.752941 0.752941 0.752941

# 2:left up front
vn -0.031220 0.031220 0.999025
v -0.808281 0.800000 0.895 0.752941 0.752941 0.752941

# 3:right down front
vn 0.031220 -0.031220 0.999025
v 0.791719 -0.800000 0.895 0.752941 0.752941 0.752941

# 4:right up front
vn 0.123092 0.123092 0.984732
v 0.791719 0.800000 0.895 0.752941 0.752941 0.752941


usemtl material_0

# front
vt 0.96 0.04
vt 0.96 0.96
vt 0.04 0.96
vt 0.04 0.04

g front
f 3/1/3 4/2/4 2/3/2
f 3/1/3 2/3/2 1/4/1


# End of File